<?xml version="1.0" encoding="UTF-8"?>
<svg xmlns="http://www.w3.org/2000/svg" viewBox="0 0 4096 3590">
  <defs>
    <style>
      .cls-1 { letter-spacing: 0em; }
      .cls-2 { font-size: 109.48px; }
      .cls-2, .cls-3, .cls-4, .cls-5, .cls-6, .cls-7, .cls-8, .cls-9, .cls-10, .cls-11, .cls-12 { font-family: Futura-Medium, Futura; font-weight: 500; isolation: isolate; }
      .cls-2, .cls-12 { fill: #00e0ff; }
      .cls-13 { letter-spacing: 0em; }
      .cls-3 { font-size: 125.64px; }
      .cls-3, .cls-5, .cls-8, .cls-9, .cls-11 { fill: #fff; }
      .cls-4 { font-size: 140.17px; }
      .cls-4, .cls-6, .cls-10, .cls-14, .cls-15, .cls-16 { fill: #00e600; }
      .cls-5 { font-size: 145.55px; }
      .cls-17 { stroke-width: 9.91px; }
      .cls-17, .cls-18, .cls-19 { stroke: #fff; }
      .cls-17, .cls-18, .cls-19, .cls-20, .cls-21, .cls-22 { fill: none; stroke-miterlimit: 13.21; }
      .cls-18, .cls-21 { stroke-width: 13.21px; }
      .cls-6 { font-size: 139.93px; }
      .cls-19, .cls-20 { stroke-width: 15px; }
      .cls-7 { font-size: 127.9px; }
      .cls-8 { font-size: 138.59px; }
      .cls-9 { font-size: 167.91px; letter-spacing: .05em; }
      .cls-10 { font-size: 125.84px; }
      .cls-11 { font-size: 121.82px; }
      .cls-20, .cls-21, .cls-22 { stroke: #00e600; }
      .cls-14 { letter-spacing: -.07em; }
      .cls-23 { fill: #2dc3e8; }
      .cls-15 { letter-spacing: 0em; }
      .cls-24 { letter-spacing: -.08em; }
      .cls-25 { letter-spacing: -.06em; }
      .cls-26 { letter-spacing: -.02em; }
      .cls-27 { letter-spacing: -.04em; }
      .cls-28 { letter-spacing: -.04em; }
      .cls-29 { letter-spacing: -.04em; }
      .cls-30 { letter-spacing: -.04em; }
      .cls-31 { letter-spacing: -.03em; }
      .cls-32 { letter-spacing: 0em; }
      .cls-12 { font-size: 102.64px; }
      .cls-22 { stroke-linecap: round; stroke-width: 19.82px; }
    </style>
  </defs>
  <g id="BLACK_BCKGRND" data-name="BLACK BCKGRND">
    <g id="Background">
      <rect width="4096" height="4096"/>
    </g>
  </g>
  <g id="WHEEL">
    <text class="cls-9" transform="translate(16.76 826.95) scale(.88 1)"><tspan x="0" y="0">WHEEL</tspan></text>
    <line class="cls-19" x1="24.28" y1="847.26" x2="571.04" y2="847.26"/>
  </g>
  <g id="Spoilers_and_Speedbrakes_Position" data-name="Spoilers and Speedbrakes Position">
    <line class="cls-22" x1="696.3" y1="551.06" x2="784.71" y2="551.06"/>
    <line class="cls-22" x1="955.13" y1="517.33" x2="1043.54" y2="517.33"/>
    <line class="cls-22" x1="1217.19" y1="481.64" x2="1305.6" y2="481.64"/>
    <line class="cls-22" x1="1479.26" y1="448.19" x2="1567.67" y2="448.19"/>
    <line class="cls-22" x1="1737.97" y1="413.62" x2="1826.38" y2="413.62"/>
    <line class="cls-22" x1="2252.74" y1="413.62" x2="2341.15" y2="413.62"/>
    <line class="cls-22" x1="2513.74" y1="448.19" x2="2602.15" y2="448.19"/>
    <line class="cls-22" x1="2777.88" y1="482.79" x2="2866.29" y2="482.79"/>
    <line class="cls-22" x1="3039.01" y1="517.31" x2="3127.42" y2="517.31"/>
    <line class="cls-22" x1="3297.15" y1="554.83" x2="3385.56" y2="554.83"/>
  </g>
  <g id="Doors_2x_Nose_Left_Right_" data-name="Doors (2x Nose/Left/Right)">
    <path class="cls-19" d="M1865.9,1213.24c-24.81,38.58-109.35,60.09-188.82,48.05-47.23-7.16-84.21-25.12-98.96-48.05"/>
    <path class="cls-19" d="M2499.14,1213.24c-24.81,38.58-109.35,60.09-188.82,48.05-47.23-7.16-84.21-25.12-98.96-48.05"/>
    <line class="cls-18" x1="115.61" y1="1580.96" x2="251.98" y2="1580.96"/>
    <line class="cls-18" x1="917.42" y1="1580.96" x2="1059.9" y2="1580.96"/>
    <line class="cls-21" x1="297.29" y1="1580.96" x2="871.41" y2="1580.96"/>
    <circle class="cls-17" cx="894.7" cy="1580.96" r="19.82"/>
    <line class="cls-21" x1="3191.03" y1="1582.25" x2="3768.2" y2="1582.23"/>
    <line class="cls-18" x1="3805.45" y1="1587.19" x2="3950.78" y2="1587.19"/>
    <line class="cls-18" x1="3004.63" y1="1587.19" x2="3145.26" y2="1587.19"/>
    <circle class="cls-17" cx="3165.07" cy="1582.25" r="19.82"/>
    <line class="cls-18" x1="2403.47" y1="791.73" x2="2510.82" y2="791.73"/>
    <line class="cls-21" x1="2116.57" y1="791.73" x2="2355.25" y2="791.73"/>
    <circle class="cls-17" cx="2380.73" cy="791.73" r="19.82"/>
    <line class="cls-21" x1="1711.05" y1="788.17" x2="1931.84" y2="788.17"/>
    <line class="cls-18" x1="1562.95" y1="793.11" x2="1665.27" y2="793.11"/>
    <circle class="cls-17" cx="1685.09" cy="788.17" r="19.82"/>
  </g>
  <g id="Gears_Nose_Left_Right_" data-name="Gears (Nose/Left/Right)">
    <g id="Layer_27" data-name="Layer 27"><polygon class="cls-20" points="3269.88 1639.14 3437.83 1639.14 3437.83 1876.44 3269.88 1639.14"/></g>
    <g id="Layer_26" data-name="Layer 26"><line class="cls-20" x1="3393.3" y1="1641.25" x2="3393.3" y2="1810.58"/></g>
    <g id="Layer_25" data-name="Layer 25"><line class="cls-20" x1="3353.86" y1="1641.25" x2="3353.86" y2="1757.79"/></g>
    <g id="Layer_24" data-name="Layer 24"><line class="cls-20" x1="3312.26" y1="1641.25" x2="3312.26" y2="1699.52"/></g>
    <g id="Layer_23" data-name="Layer 23"><polygon class="cls-20" points="3663.74 1639.14 3495.79 1639.14 3495.79 1876.44 3663.74 1639.14"/></g>
    <g id="Layer_22" data-name="Layer 22"><line class="cls-20" x1="3540.32" y1="1641.25" x2="3540.32" y2="1813.36"/></g>
    <g id="Layer_21" data-name="Layer 21"><line class="cls-20" x1="3579.77" y1="1641.25" x2="3579.77" y2="1759.72"/></g>
    <g id="Layer_20" data-name="Layer 20"><line class="cls-20" x1="3621.36" y1="1641.25" x2="3621.36" y2="1696.15"/></g>
    <g id="Layer_19" data-name="Layer 19"><polygon class="cls-20" points="383.02 1632.61 550.97 1632.61 550.97 1869.91 383.02 1632.61"/></g>
    <g id="Layer_18" data-name="Layer 18"><line class="cls-20" x1="506.43" y1="1634.72" x2="506.43" y2="1804.05"/></g>
    <g id="Layer_17" data-name="Layer 17"><line class="cls-20" x1="466.99" y1="1634.72" x2="466.99" y2="1751.26"/></g>
    <g id="Layer_16" data-name="Layer 16"><line class="cls-20" x1="425.4" y1="1634.72" x2="425.4" y2="1692.99"/></g>
    <g id="Layer_15" data-name="Layer 15"><polygon class="cls-20" points="776.88 1632.61 608.93 1632.61 608.93 1869.91 776.88 1632.61"/></g>
    <g id="Layer_14" data-name="Layer 14"><line class="cls-20" x1="653.46" y1="1634.72" x2="653.46" y2="1806.83"/></g>
    <g id="Layer_13" data-name="Layer 13"><line class="cls-20" x1="692.9" y1="1634.72" x2="692.9" y2="1753.19"/></g>
    <g id="Layer_12" data-name="Layer 12"><line class="cls-20" x1="734.49" y1="1634.72" x2="734.49" y2="1689.62"/></g>
    <g id="Layer_11" data-name="Layer 11"><polygon class="cls-20" points="1828.16 839.78 1996.12 839.78 1996.12 1077.07 1828.16 839.78"/></g>
    <g id="Layer_10" data-name="Layer 10"><line class="cls-20" x1="1951.58" y1="841.89" x2="1951.58" y2="1011.22"/></g>
    <g id="Layer_9" data-name="Layer 9"><line class="cls-20" x1="1912.14" y1="841.89" x2="1912.14" y2="958.43"/></g>
    <g id="Layer_8" data-name="Layer 8"><line class="cls-20" x1="1870.55" y1="841.89" x2="1870.55" y2="900.16"/></g>
    <g id="Layer_7" data-name="Layer 7"><polygon class="cls-20" points="2222.03 839.78 2054.07 839.78 2054.07 1077.07 2222.03 839.78"/></g>
    <g id="Layer_6" data-name="Layer 6"><line class="cls-20" x1="2098.61" y1="841.89" x2="2098.61" y2="1013.99"/></g>
    <g id="Layer_5" data-name="Layer 5"><line class="cls-20" x1="2138.05" y1="841.89" x2="2138.05" y2="960.36"/></g>
    <g id="Layer_4" data-name="Layer 4"><line class="cls-20" x1="2179.64" y1="841.89" x2="2179.64" y2="896.78"/></g>
  </g>
  <g id="PERMANENT_DATA" data-name="PERMANENT DATA">
    <line class="cls-17" y1="3589.95" x2="4096" y2="3589.95"/>
    <line class="cls-19" x1="1354.32" y1="3589.95" x2="1354.32" y2="4096"/>
    <line class="cls-19" x1="2718.21" y1="3589.95" x2="2718.21" y2="4096"/>
    <text class="cls-8" transform="translate(231.8677 3746.6641) scale(1.1132 1)"><tspan class="cls-30" x="0" y="0">T</tspan><tspan class="cls-27" x="61.17" y="0">A</tspan><tspan x="158.01" y="0">T</tspan></text>
    <text class="cls-8" transform="translate(213.9878 3917.3105) scale(1.1795 1)"><tspan class="cls-32" x="0" y="0">S</tspan><tspan class="cls-28" x="79.72" y="0">A</tspan><tspan x="176.55" y="0">T</tspan></text>
    <text class="cls-6" transform="translate(604.6772 3753.21) scale(1.0706 1)"><tspan x="0" y="0">+</tspan><tspan class="cls-24" x="86.36" y="0">3</tspan><tspan class="cls-1" x="161.66" y="0">3</tspan></text>
    <text class="cls-6" transform="translate(604.6772 3919.2051) scale(1.0706 1)"><tspan x="0" y="0">+</tspan><tspan class="cls-24" x="86.36" y="0">3</tspan><tspan class="cls-1" x="161.66" y="0">0</tspan></text>
    <text class="cls-12" transform="translate(1007.5801 3750.0488) scale(.9143 1)"><tspan x="0" y="0">°C</tspan></text>
    <text class="cls-12" transform="translate(1007.5801 3916.3777) scale(.9143 1)"><tspan x="0" y="0">°C</tspan></text>
    <text class="cls-7" transform="translate(1768.5982 3921.8516) scale(1.1 1)"><tspan class="cls-16" x="0" y="0">04 </tspan><tspan class="cls-23" x="197.34" y="0">H</tspan><tspan class="cls-15" x="291.14" y="0"> </tspan><tspan class="cls-14" x="330.61" y="0">3</tspan><tspan class="cls-16" x="400.37" y="0">0</tspan></text>
    <text class="cls-5" transform="translate(2846.3223 3757.9111) scale(.6612 1)"><tspan class="cls-26" x="0" y="0">G</tspan><tspan x="119.97" y="0">W</tspan></text>
    <text class="cls-4" transform="translate(3244.875 3755.9492) scale(1.0357 1)"><tspan x="0" y="0">6</tspan><tspan class="cls-31" x="86.51" y="0">5</tspan><tspan x="168.99" y="0">000</tspan></text>
    <text class="cls-2" transform="translate(3825.6699 3744.8975) scale(.9193 1)"><tspan class="cls-29" x="0" y="0">K</tspan><tspan class="cls-13" x="67.83" y="0">G</tspan></text>
  </g>
  <g id="Brakes_Left_Right_" data-name="Brakes (Left/Right)">
    <path class="cls-19" d="M160.85,2449.72c24.05-38.2,106-59.49,183.03-47.57,45.78,7.09,81.63,24.87,95.92,47.57"/>
    <path class="cls-19" d="M732.5,2449.72c24.05-38.2,106-59.49,183.03-47.57,45.78,7.09,81.63,24.87,95.92,47.57"/>
    <path class="cls-19" d="M160.85,2941.95c23.94,31.45,105.5,48.98,182.16,39.16,45.56-5.84,74.62-18.6,88.85-37.29"/>
    <path class="cls-19" d="M736.47,2941.95c23.94,31.45,105.5,48.98,182.16,39.16,45.56-5.84,74.62-18.6,88.85-37.29"/>
    <text class="cls-10" transform="translate(246.9487 2602.2832) scale(1.1594 1)"><tspan class="cls-25" x="0" y="0">1</tspan><tspan x="70.11" y="0">0</tspan></text>
    <text class="cls-10" transform="translate(811.4073 2602.2832) scale(1.1594 1)"><tspan class="cls-25" x="0" y="0">1</tspan><tspan x="70.11" y="0">0</tspan></text>
    <text class="cls-11" transform="translate(242.9819 2756.8311) scale(1.2282 1)"><tspan x="0" y="0">1</tspan></text>
    <text class="cls-11" transform="translate(812.7035 2756.8311) scale(1.2282 1)"><tspan x="0" y="0">2</tspan></text>
    <text class="cls-3" transform="translate(462.4531 2754.3564) scale(1.1611 1)"><tspan x="0" y="0">REL</tspan></text>
    <text class="cls-12" transform="translate(499.2632 2586.651) scale(.9143 1)"><tspan x="0" y="0">°C</tspan></text>
    <path class="cls-19" d="M3064.7,2454.98c24.05-38.2,106-59.49,183.03-47.57,45.78,7.09,81.63,24.87,95.92,47.57"/>
    <path class="cls-19" d="M3636.35,2454.98c24.05-38.2,106-59.49,183.03-47.57,45.78,7.09,81.63,24.87,95.92,47.57"/>
    <path class="cls-19" d="M3064.7,2947.22c23.94,31.45,105.5,48.98,182.16,39.16,45.56-5.84,74.62-18.6,88.85-37.29"/>
    <path class="cls-19" d="M3640.32,2947.22c23.94,31.45,105.5,48.98,182.16,39.16,45.56-5.84,74.62-18.6,88.85-37.29"/>
    <text class="cls-10" transform="translate(3150.7974 2607.5497) scale(1.1594 1)"><tspan class="cls-25" x="0" y="0">1</tspan><tspan x="70.11" y="0">0</tspan></text>
    <text class="cls-10" transform="translate(3715.2559 2607.5497) scale(1.1594 1)"><tspan class="cls-25" x="0" y="0">1</tspan><tspan x="70.11" y="0">0</tspan></text>
    <text class="cls-11" transform="translate(3146.8306 2762.0975) scale(1.2282 1)"><tspan x="0" y="0">3</tspan></text>
    <text class="cls-11" transform="translate(3716.552 2762.0975) scale(1.2282 1)"><tspan x="0" y="0">4</tspan></text>
    <text class="cls-3" transform="translate(3366.3018 2759.6229) scale(1.1611 1)"><tspan x="0" y="0">REL</tspan></text>
    <text class="cls-12" transform="translate(3403.1118 2591.9175) scale(.9143 1)"><tspan x="0" y="0">°C</tspan></text>
  </g>
</svg>
